<?xml version="1.0" encoding="UTF-8"?> <!-- Creator: CorelDRAW 2018 (64-Bit) --> <svg xmlns="http://www.w3.org/2000/svg" xmlns:xlink="http://www.w3.org/1999/xlink" xml:space="preserve" width="1226px" height="447px" style="shape-rendering:geometricPrecision; text-rendering:geometricPrecision; image-rendering:optimizeQuality; fill-rule:evenodd; clip-rule:evenodd" viewBox="0 0 1227.08 446.98"> <defs> <style type="text/css"> <![CDATA[ .fil2 {fill:none} .fil1 {fill:#1F1D1A;fill-rule:nonzero} .fil0 {fill:#12A8A7;fill-rule:nonzero} ]]> </style> </defs> <g id="Слой_x0020_1"> <metadata id="CorelCorpID_0Corel-Layer"></metadata> <g id="_2042399970640"> <path class="fil0" d="M579.37 202.67l1.94 31.56c5.64,58.6 61.33,76.83 68.63,34.06 -1.49,-28.31 -41.54,-4.45 -47.72,-67.27 -2.19,-20.83 -23.53,-19.5 -22.85,1.65zm150.97 26c6.91,0 12.51,5.6 12.51,12.51 0,6.9 -5.6,12.5 -12.51,12.5 -6.9,0 -12.5,-5.6 -12.5,-12.5 0,-6.91 5.6,-12.51 12.5,-12.51zm-72.96 -38.58l0 35.53c-1.75,26.91 35.17,34.17 34.9,-1.74 -0.07,-8.67 0.29,-1.77 0.29,-19.12 -1.38,-29.66 5.08,-30.48 26.96,-30.26 25.18,0.27 53.18,18.37 53.18,46.18 1.72,44.19 -44.68,54.23 -76.18,43.48 -27.42,-9.35 -38.39,-7.31 -43.27,8.28 -3.6,11.52 4.72,23.27 17.49,26.27 46.61,8.8 134.51,8.01 131.66,-80.44 -1.5,-47.47 -30.33,-71.53 -78.97,-71.53l-23.79 0c-30.87,1.87 -40.42,16.32 -42.27,43.35zm-87.37 -44.49l-18.19 0c-1.48,0 -2.77,0.55 -3.64,1.38 -0.35,0.35 -0.64,0.75 -0.84,1.18 -0.18,0.4 -0.28,0.84 -0.28,1.29 0,0.89 0.4,1.87 1.31,2.81l16.98 17.53c3.84,3.97 8.58,8.87 13.04,8.87 8.12,0 16.07,0 24.19,0 4.46,0 9.2,-4.9 13.04,-8.87l16.98 -17.53c0.91,-0.94 1.3,-1.92 1.3,-2.81 0,-0.45 -0.1,-0.89 -0.28,-1.29 -0.19,-0.43 -0.48,-0.82 -0.84,-1.18 -0.86,-0.83 -2.15,-1.38 -3.64,-1.38l-18.19 0c-2.28,0 -4.88,0.97 -7.23,2.52 -2.38,1.58 -4.47,3.74 -5.67,6.09l-7.57 14.85 -7.57 -14.84c-1.2,-2.36 -3.28,-4.52 -5.66,-6.1 -2.35,-1.55 -4.95,-2.52 -7.24,-2.52z"></path> <path class="fil1" d="M1067.43 159.35c-0.46,-2.18 -1.34,-4.26 -2.6,-6.12 -1.21,-1.78 -2.78,-3.36 -4.69,-4.62l-0.13 -0.09c-1.93,-1.25 -4.04,-2.07 -6.19,-2.46 -2.23,-0.41 -4.52,-0.36 -6.72,0.11 -2.19,0.46 -4.3,1.35 -6.17,2.64 -1.81,1.23 -3.4,2.84 -4.65,4.77 -6.85,10.49 -13.72,20.98 -20.54,31.49 -6.82,-10.51 -13.69,-20.99 -20.53,-31.49 -1.25,-1.94 -2.84,-3.54 -4.65,-4.77 -1.87,-1.29 -3.98,-2.18 -6.17,-2.64 -2.21,-0.47 -4.5,-0.52 -6.72,-0.11 -2.15,0.39 -4.26,1.21 -6.2,2.46l-0.19 0.13c-1.88,1.26 -3.44,2.83 -4.64,4.61 -1.25,1.85 -2.12,3.93 -2.58,6.09 -0.47,2.2 -0.51,4.49 -0.1,6.72 0.39,2.15 1.2,4.26 2.46,6.19l28.82 44.41 -34.96 53.87c-1.25,1.93 -2.07,4.04 -2.46,6.19 -0.41,2.23 -0.36,4.52 0.11,6.72 0.45,2.16 1.33,4.24 2.58,6.09 1.2,1.78 2.77,3.36 4.66,4.63l0.17 0.11c1.94,1.25 4.04,2.07 6.19,2.46 2.23,0.41 4.52,0.36 6.72,-0.11 2.19,-0.46 4.3,-1.35 6.18,-2.64 1.8,-1.23 3.39,-2.84 4.65,-4.77 8.89,-13.65 17.8,-27.28 26.66,-40.94 8.87,13.66 17.78,27.29 26.67,40.94 1.25,1.93 2.85,3.54 4.65,4.77 1.87,1.29 3.98,2.18 6.18,2.64 2.2,0.47 4.49,0.52 6.72,0.11 2.15,-0.39 4.25,-1.21 6.19,-2.46l0.14 -0.1c1.9,-1.26 3.47,-2.84 4.67,-4.61 1.26,-1.85 2.14,-3.94 2.6,-6.12 0.47,-2.2 0.51,-4.49 0.11,-6.72 -0.4,-2.15 -1.21,-4.26 -2.46,-6.19l-34.96 -53.87 28.82 -44.41c1.26,-1.93 2.07,-4.04 2.46,-6.19 0.41,-2.23 0.37,-4.52 -0.1,-6.72zm-873.61 43.12l18.21 49.37c4.12,11.16 9,18.98 14.18,23.48 3.42,2.97 6.95,4.45 10.44,4.45 3.5,0 7.03,-1.48 10.45,-4.45 5.18,-4.5 10.06,-12.33 14.18,-23.48l18.21 -49.37c0.14,-0.41 1.5,-4.3 3.32,-4.7 1.33,-0.29 2.39,0.32 2.88,2.52l0.04 0.17 0 0.19c0,18.72 -0.41,37.99 -0.81,57.21 -0.16,7.73 -0.33,15.46 -0.46,23.11 0.11,3.29 1.23,6.21 3.01,8.63 2.01,2.72 4.84,4.85 8.04,6.23 1.3,0.57 2.67,1.02 4.07,1.34 1.39,0.32 2.79,0.51 4.17,0.55 1.4,0.05 2.81,-0.04 4.17,-0.28 1.31,-0.22 2.57,-0.59 3.76,-1.08 2.66,-1.13 5.01,-3 6.72,-5.72 1.55,-2.47 2.59,-5.66 2.86,-9.63l0 -106.68c0,-4.48 -0.74,-8.51 -2.04,-12.05 -1.39,-3.78 -3.44,-7.03 -5.93,-9.71 -1.86,-1.98 -3.96,-3.67 -6.24,-5.03 -2.34,-1.39 -4.88,-2.46 -7.51,-3.18 -2.62,-0.71 -5.33,-1.07 -8.02,-1.06 -2.65,0 -5.32,0.36 -7.91,1.08 -3.43,0.96 -6.73,2.58 -9.7,4.89 -2.78,2.16 -5.27,4.93 -7.29,8.33 -0.76,1.28 -1.77,3.71 -2.81,6.44 -1.13,2.94 -2.18,5.93 -3.04,8.37 -7.5,21.42 -16.13,43.03 -24.12,64.36 -7.74,-20.68 -15.43,-44.51 -24.11,-64.36 -0.87,-2.47 -1.94,-5.51 -3.04,-8.37 -1.04,-2.73 -2.05,-5.16 -2.81,-6.44 -2.02,-3.4 -4.51,-6.17 -7.29,-8.33 -2.97,-2.31 -6.27,-3.93 -9.7,-4.89 -2.59,-0.72 -5.26,-1.08 -7.91,-1.08 -2.69,-0.01 -5.4,0.35 -8.02,1.06 -2.64,0.72 -5.17,1.79 -7.51,3.18 -2.28,1.36 -4.39,3.05 -6.24,5.03 -2.49,2.68 -4.54,5.93 -5.93,9.71 -1.3,3.54 -2.04,7.57 -2.04,12.05l0 106.68c0.27,3.97 1.31,7.16 2.86,9.63 1.71,2.72 4.06,4.59 6.72,5.72 1.19,0.49 2.45,0.86 3.76,1.08 1.36,0.24 2.77,0.33 4.17,0.28 1.38,-0.04 2.78,-0.23 4.17,-0.55 1.4,-0.32 2.77,-0.77 4.07,-1.34 3.19,-1.38 6.03,-3.51 8.04,-6.23 1.78,-2.42 2.9,-5.34 3.01,-8.63 -0.13,-7.65 -0.3,-15.38 -0.46,-23.11 -0.4,-19.22 -0.81,-38.49 -0.81,-57.21l0 -0.15 0.05 -0.21c0.48,-2.19 1.54,-2.81 2.86,-2.52 1.8,0.4 3.18,4.26 3.33,4.7zm207.08 -15.43l-2.93 -0.06 -6.38 0 -2.94 0.06 -3.05 0.1 -3.15 0.14c-0.91,0.05 -1.91,0.12 -2.98,0.21l-3.03 0.3 -2.98 0.38c-1.08,0.16 -2.04,0.32 -2.91,0.48 -0.9,0.16 -1.82,0.36 -2.75,0.58 -0.9,0.22 -1.79,0.47 -2.68,0.74 -0.85,0.26 -1.71,0.56 -2.57,0.88 -0.85,0.32 -1.69,0.67 -2.52,1.04 -0.79,0.36 -1.56,0.75 -2.32,1.17 -0.78,0.44 -1.51,0.9 -2.19,1.36 -0.71,0.48 -1.41,1.01 -2.1,1.57 -0.69,0.57 -1.36,1.16 -1.97,1.75 -0.7,0.7 -1.38,1.44 -2.03,2.24 -0.66,0.79 -1.27,1.6 -1.81,2.41 -0.56,0.83 -1.09,1.71 -1.58,2.62 -0.5,0.93 -0.95,1.86 -1.35,2.81 -0.39,0.94 -0.8,1.97 -1.2,3.05 -0.38,1.05 -0.73,2.08 -1.05,3.1 -0.34,1.07 -0.63,2.11 -0.9,3.11 -0.26,1.03 -0.5,2.06 -0.72,3.08 -0.21,1.03 -0.41,2.08 -0.59,3.15 -0.18,1.07 -0.34,2.09 -0.46,3.05 -0.13,1.02 -0.25,2.03 -0.33,2.99 -0.09,0.96 -0.16,1.94 -0.2,2.94l-0.22 5.65 -0.05 2.33 -0.01 2.38c0,1.73 0.02,3.31 0.06,4.71l0.22 5.64c0.04,1.01 0.11,1.99 0.2,2.95 0.08,0.98 0.2,1.98 0.32,2.99 0.13,0.94 0.28,1.96 0.47,3.04 0.18,1.04 0.37,2.1 0.59,3.15 0.21,1.03 0.46,2.07 0.72,3.09 0.26,1 0.56,2.04 0.9,3.1 0.32,1.03 0.67,2.06 1.05,3.11 0.4,1.09 0.81,2.12 1.2,3.06 0.4,0.93 0.84,1.87 1.34,2.79 0.49,0.89 1.02,1.77 1.59,2.62 0.55,0.82 1.15,1.63 1.81,2.43 0.63,0.77 1.31,1.51 2.03,2.23 0.64,0.62 1.3,1.21 1.97,1.75 0.66,0.54 1.36,1.07 2.09,1.57 0.71,0.48 1.45,0.94 2.2,1.36 0.74,0.41 1.51,0.81 2.32,1.17 0.82,0.37 1.66,0.71 2.5,1.04 0.86,0.32 1.73,0.62 2.58,0.88 0.9,0.27 1.8,0.52 2.71,0.74 0.92,0.23 1.83,0.42 2.73,0.58l2.89 0.47 2.99 0.39 3.01 0.3 3.01 0.21c2.09,0.1 4.14,0.19 6.15,0.24 1.9,0.05 3.98,0.07 6.22,0.07l3.14 -0.01 2.91 -0.05 3.04 -0.11 3.18 -0.14c0.94,-0.05 1.96,-0.12 3.05,-0.21l3.06 -0.3 2.98 -0.39c1.07,-0.15 2.04,-0.31 2.9,-0.47 0.9,-0.16 1.81,-0.35 2.74,-0.58 0.9,-0.22 1.81,-0.47 2.7,-0.74 0.83,-0.25 1.68,-0.55 2.56,-0.88 0.88,-0.33 1.73,-0.68 2.53,-1.04 0.78,-0.35 1.55,-0.74 2.31,-1.16 0.76,-0.43 1.5,-0.89 2.21,-1.37 0.72,-0.5 1.43,-1.02 2.09,-1.57 0.67,-0.55 1.33,-1.13 1.97,-1.75 0.7,-0.7 1.38,-1.44 2.03,-2.23 0.66,-0.8 1.26,-1.61 1.81,-2.41 0.56,-0.84 1.09,-1.72 1.59,-2.64 0.49,-0.92 0.94,-1.86 1.34,-2.79 0.41,-0.98 0.81,-2 1.19,-3.06 0.39,-1.05 0.74,-2.08 1.06,-3.11 0.33,-1.05 0.63,-2.09 0.89,-3.09 0.26,-1.01 0.51,-2.05 0.73,-3.1 0.21,-1.03 0.41,-2.09 0.59,-3.17 0.19,-1.07 0.34,-2.07 0.46,-3.01 0.13,-1.02 0.24,-2.02 0.33,-2.99 0.08,-0.96 0.15,-1.95 0.2,-2.96l0.22 -5.62 0.05 -2.34 0.01 -2.39c0,-1.73 -0.02,-3.33 -0.06,-4.73l-0.22 -5.62c-0.05,-1.01 -0.12,-2 -0.2,-2.95 -0.09,-0.98 -0.2,-1.98 -0.33,-2.99 -0.12,-0.95 -0.27,-1.96 -0.46,-3.04 -0.18,-1.05 -0.38,-2.1 -0.59,-3.15 -0.22,-1.03 -0.46,-2.07 -0.73,-3.09 -0.26,-1.01 -0.56,-2.05 -0.89,-3.11 -0.32,-1.02 -0.68,-2.06 -1.06,-3.1 -0.4,-1.09 -0.79,-2.11 -1.19,-3.05 -0.4,-0.95 -0.86,-1.89 -1.36,-2.82 -0.49,-0.91 -1.02,-1.79 -1.57,-2.62 -0.55,-0.8 -1.15,-1.61 -1.81,-2.41 -0.66,-0.79 -1.34,-1.54 -2.03,-2.23 -0.64,-0.62 -1.3,-1.2 -1.97,-1.75 -0.69,-0.56 -1.39,-1.09 -2.09,-1.56 -0.71,-0.49 -1.45,-0.95 -2.21,-1.37 -0.73,-0.41 -1.51,-0.8 -2.31,-1.17 -0.83,-0.37 -1.67,-0.72 -2.52,-1.04 -0.87,-0.32 -1.73,-0.62 -2.57,-0.88 -0.89,-0.27 -1.79,-0.52 -2.69,-0.74 -0.93,-0.22 -1.85,-0.42 -2.75,-0.58 -0.87,-0.16 -1.83,-0.32 -2.9,-0.48l-2.99 -0.38c-0.99,-0.12 -2,-0.22 -3.04,-0.3l-3.05 -0.21 -3.18 -0.14 -3.02 -0.1zm-30.08 64.28c-0.11,-1.19 -0.19,-2.55 -0.25,-4.08 -0.06,-1.53 -0.09,-3.06 -0.09,-4.59 0,-1.64 0.03,-3.28 0.09,-4.89 0.06,-1.51 0.15,-2.94 0.28,-4.26 0.13,-1.39 0.29,-2.61 0.47,-3.66 0.19,-1.1 0.43,-2.09 0.69,-2.97l0.7 -2.15 0.64 -1.79 0.65 -1.59c0.24,-0.51 0.45,-0.95 0.66,-1.31l0.21 -0.32c0.36,-0.51 0.76,-1 1.17,-1.47 0.44,-0.47 0.91,-0.95 1.43,-1.42 0.49,-0.46 1.04,-0.93 1.63,-1.4 0.58,-0.46 1.22,-0.93 1.9,-1.42 0.82,-0.59 1.76,-1.1 2.79,-1.53 0.99,-0.42 2.1,-0.77 3.3,-1.03 1.12,-0.26 2.33,-0.45 3.64,-0.57 1.31,-0.13 2.68,-0.19 4.09,-0.19 1.4,0 2.77,0.06 4.08,0.19 1.31,0.12 2.53,0.31 3.64,0.57 1.2,0.26 2.31,0.61 3.3,1.02 1.02,0.43 1.95,0.95 2.79,1.54 0.69,0.49 1.32,0.96 1.9,1.42 0.56,0.44 1.1,0.91 1.63,1.39 0.53,0.48 1.01,0.96 1.44,1.43 0.43,0.49 0.82,0.98 1.17,1.47l0.08 0.11c0.35,0.54 0.67,1.11 0.97,1.71 0.3,0.63 0.58,1.28 0.83,1.95 0.24,0.63 0.48,1.36 0.71,2.16 0.23,0.78 0.44,1.57 0.62,2.37 0.2,0.85 0.38,1.82 0.53,2.9 0.15,1.06 0.27,2.2 0.37,3.41 0.08,1.16 0.15,2.46 0.2,3.93 0.05,1.49 0.08,2.97 0.08,4.4 0,0.95 -0.02,2.01 -0.06,3.17 -0.04,1.11 -0.09,2.16 -0.15,3.12 -0.07,1 -0.15,1.99 -0.26,2.95 -0.1,1.01 -0.23,1.94 -0.35,2.81 -0.14,0.94 -0.33,1.88 -0.56,2.8 -0.22,0.91 -0.48,1.8 -0.79,2.66 -0.31,0.9 -0.65,1.73 -1.02,2.51 -0.37,0.79 -0.8,1.56 -1.28,2.31 -0.3,0.5 -0.67,1.01 -1.1,1.52 -0.42,0.51 -0.9,1.02 -1.43,1.53 -0.46,0.46 -1.01,0.96 -1.62,1.47 -0.6,0.5 -1.24,1.01 -1.92,1.52 -0.85,0.64 -1.79,1.19 -2.82,1.65 -1.01,0.46 -2.12,0.83 -3.31,1.13 -1.12,0.27 -2.33,0.48 -3.62,0.61 -1.3,0.14 -2.65,0.21 -4.05,0.21 -1.65,0 -3.21,-0.11 -4.65,-0.32 -0.73,-0.1 -1.45,-0.25 -2.14,-0.41 -0.7,-0.17 -1.35,-0.37 -1.97,-0.59l-1.64 -0.64 -1.46 -0.65 -1.4 -0.72 -1.29 -0.77 -1.16 -0.79c-0.36,-0.25 -0.71,-0.53 -1.03,-0.8 -0.32,-0.27 -0.64,-0.57 -0.95,-0.87 -0.27,-0.28 -0.56,-0.59 -0.84,-0.93 -0.47,-0.6 -0.91,-1.16 -1.33,-1.78l-0.3 -0.5c-0.24,-0.39 -0.48,-0.81 -0.7,-1.26 -0.23,-0.47 -0.47,-1.03 -0.72,-1.67 -0.23,-0.61 -0.46,-1.25 -0.68,-1.93l-0.67 -2.21c-0.24,-0.84 -0.45,-1.82 -0.63,-2.92 -0.17,-1.04 -0.32,-2.23 -0.44,-3.54zm125.66 -67.18l0 -27.7c0.01,-3.01 -0.74,-5.51 -2.01,-7.48 -1.4,-2.19 -3.45,-3.78 -5.8,-4.77 -1,-0.42 -2.06,-0.74 -3.15,-0.96 -1.11,-0.23 -2.27,-0.34 -3.42,-0.36 -1.15,-0.02 -2.33,0.07 -3.49,0.27 -1.14,0.19 -2.26,0.49 -3.34,0.88 -2.71,0.99 -5.13,2.63 -6.86,4.9 -1.53,2.02 -2.53,4.56 -2.69,7.61l0.01 123.59 0.05 1.89c0.02,0.59 0.08,1.17 0.14,1.75 0.07,0.59 0.15,1.14 0.23,1.64l0.35 1.57c0.09,0.43 0.23,0.86 0.4,1.29 0.16,0.42 0.36,0.85 0.59,1.28 0.23,0.42 0.5,0.84 0.8,1.27 0.31,0.44 0.64,0.85 0.98,1.25l0.08 0.08c0.55,0.65 1.1,1.24 1.65,1.75 0.53,0.51 1.08,0.95 1.63,1.34 0.51,0.35 1.03,0.65 1.53,0.89 0.49,0.23 1,0.41 1.51,0.54 0.7,0.18 1.37,0.33 2,0.45 0.66,0.13 1.28,0.24 1.84,0.31 0.57,0.07 1.17,0.14 1.79,0.18 0.55,0.03 1.14,0.05 1.75,0.05l45.36 0 1.86 -0.02 1.92 -0.1 2.16 -0.16 2.32 -0.24c0.77,-0.08 1.52,-0.2 2.24,-0.33 0.75,-0.13 1.49,-0.3 2.21,-0.48 0.72,-0.19 1.48,-0.41 2.28,-0.68 0.77,-0.25 1.52,-0.53 2.23,-0.81 0.72,-0.29 1.45,-0.62 2.17,-0.98 0.73,-0.37 1.45,-0.77 2.17,-1.21 0.7,-0.42 1.42,-0.9 2.15,-1.42 0.68,-0.49 1.41,-1.05 2.17,-1.67 0.68,-0.56 1.34,-1.18 1.96,-1.83 0.62,-0.65 1.24,-1.38 1.85,-2.16 0.64,-0.82 1.24,-1.67 1.79,-2.54 0.56,-0.87 1.12,-1.83 1.66,-2.85 0.49,-0.92 0.96,-1.92 1.42,-2.99 0.45,-1.08 0.87,-2.21 1.25,-3.4 0.4,-1.21 0.77,-2.49 1.11,-3.84 0.35,-1.37 0.65,-2.78 0.92,-4.21 0.27,-1.43 0.51,-3.02 0.73,-4.77 0.21,-1.71 0.39,-3.53 0.52,-5.42 0.15,-1.99 0.26,-4.04 0.33,-6.15 0.06,-2.05 0.1,-4.34 0.1,-6.86 0,-1.68 -0.02,-3.22 -0.05,-4.59 -0.04,-1.5 -0.1,-3.06 -0.18,-4.67 -0.08,-1.54 -0.18,-3.17 -0.3,-4.89 -0.13,-1.8 -0.27,-3.5 -0.42,-5.09 -0.14,-1.6 -0.37,-3.2 -0.69,-4.8 -0.31,-1.6 -0.7,-3.16 -1.16,-4.67 -0.46,-1.51 -1.01,-3.02 -1.63,-4.5 -0.62,-1.48 -1.33,-2.95 -2.12,-4.39 -0.59,-1.09 -1.17,-2.09 -1.77,-3 -0.58,-0.9 -1.19,-1.76 -1.83,-2.56 -0.61,-0.79 -1.24,-1.51 -1.88,-2.16 -0.66,-0.67 -1.32,-1.27 -1.96,-1.79 -0.69,-0.55 -1.41,-1.09 -2.15,-1.6 -0.71,-0.51 -1.44,-0.97 -2.15,-1.38 -0.75,-0.44 -1.47,-0.82 -2.15,-1.14 -0.69,-0.34 -1.41,-0.65 -2.18,-0.94 -0.76,-0.29 -1.52,-0.55 -2.26,-0.77 -0.7,-0.22 -1.45,-0.42 -2.22,-0.6 -0.79,-0.19 -1.54,-0.34 -2.23,-0.46 -0.74,-0.12 -1.46,-0.21 -2.14,-0.27l-2.3 -0.18 -2.22 -0.14 -2.05 -0.08 -2.06 -0.02 -31.35 0 0 -3.7zm0.06 77.18c-0.49,-16.6 -0.06,-33.7 -0.06,-50.37 6.72,0 17.82,-1.03 24.33,0.27 0.42,0.05 0.82,0.13 1.19,0.22 0.4,0.08 0.79,0.19 1.15,0.31l1.13 0.42 1.12 0.52c0.41,0.2 0.82,0.43 1.21,0.69 0.36,0.23 0.76,0.52 1.17,0.84 0.41,0.33 0.79,0.66 1.12,0.96 0.35,0.33 0.7,0.68 1.05,1.05 0.38,0.41 0.75,0.86 1.1,1.33 0.33,0.46 0.66,0.97 0.98,1.51 0.31,0.53 0.6,1.07 0.86,1.61 0.27,0.57 0.51,1.15 0.74,1.75l0.38 1.14 0.41 1.42 0.91 3.66c0.18,0.79 0.34,1.68 0.48,2.67 0.14,0.98 0.25,2.03 0.33,3.14 0.08,1.04 0.15,2.24 0.19,3.58 0.05,1.38 0.07,2.73 0.07,4.04 0,1.35 -0.02,2.75 -0.06,4.21 -0.04,1.39 -0.1,2.65 -0.18,3.77 -0.07,1.19 -0.17,2.28 -0.29,3.26 -0.12,1.01 -0.26,1.93 -0.42,2.74l-0.47 2.19 -0.5 1.96c-0.19,0.67 -0.37,1.27 -0.54,1.77 -0.19,0.54 -0.39,1.04 -0.58,1.49 -0.33,0.77 -0.69,1.5 -1.08,2.18 -0.39,0.68 -0.84,1.34 -1.33,1.96 -0.5,0.65 -1.04,1.24 -1.6,1.78 -0.57,0.53 -1.19,1.04 -1.85,1.49 -0.69,0.49 -1.46,0.92 -2.28,1.27 -0.8,0.34 -1.68,0.64 -2.64,0.87 -0.89,0.21 -1.82,0.37 -2.79,0.48 -0.99,0.1 -2.02,0.16 -3.06,0.16 -3.84,0 -7.77,-0.26 -11.51,-0.26 -0.54,-0.06 -1.07,-0.17 -1.59,-0.32 -0.51,-0.15 -1.02,-0.36 -1.51,-0.61 -0.45,-0.22 -0.91,-0.5 -1.35,-0.83 -0.43,-0.32 -0.85,-0.67 -1.24,-1.05l-0.18 -0.2c-0.39,-0.45 -0.75,-0.93 -1.06,-1.45 -0.31,-0.5 -0.58,-1.04 -0.81,-1.62 -0.21,-0.52 -0.39,-1.09 -0.52,-1.7 -0.14,-0.6 -0.22,-1.21 -0.27,-1.81 0,-0.81 -0.15,-1.69 -0.15,-2.49zm410.55 -87.25l-0.45 -1c-1.86,-5.03 -4.13,-9.39 -6.68,-13.06 -2.67,-3.83 -5.64,-6.91 -8.8,-9.26 -2.51,-1.85 -5.13,-3.25 -7.8,-4.17 -2.69,-0.94 -5.46,-1.41 -8.23,-1.41 -2.77,0 -5.54,0.47 -8.22,1.41 -2.68,0.92 -5.3,2.32 -7.81,4.17 -3.16,2.35 -6.14,5.43 -8.8,9.26 -2.55,3.67 -4.82,8.03 -6.68,13.06 -6.33,17.1 -13.22,34.4 -20.1,51.69 -6.76,17.01 -13.54,34.03 -19.98,51.41 -0.78,2.11 -1.1,4.28 -1,6.4 0.09,2.21 0.64,4.39 1.56,6.39 0.92,1.99 2.23,3.81 3.85,5.34 1.56,1.48 3.42,2.69 5.52,3.51l0.3 0.11c2.18,0.8 4.42,1.13 6.6,1.05 2.28,-0.09 4.5,-0.63 6.54,-1.57 2.02,-0.93 3.88,-2.26 5.43,-3.93 1.48,-1.59 2.68,-3.5 3.48,-5.67 0.75,-2.03 1.39,-3.83 2.01,-5.62 1.51,-4.3 3.05,-8.7 4.82,-12.62l4.21 -11.23 56.54 0 3.9 10.46c1.88,4.63 3.58,9.31 5.29,13.97l1.85 5.04c0.8,2.17 2,4.08 3.48,5.67 1.55,1.67 3.41,3 5.43,3.93 2.04,0.94 4.26,1.48 6.54,1.57 2.18,0.08 4.42,-0.25 6.6,-1.05l0.33 -0.13c2.08,-0.82 3.94,-2.02 5.49,-3.49 1.62,-1.53 2.92,-3.35 3.85,-5.34 0.92,-2.01 1.46,-4.18 1.56,-6.39 0.09,-2.12 -0.22,-4.29 -1,-6.4 -12.2,-32.91 -25.32,-65.99 -38.17,-98.4l-1.46 -3.7zm-19.55 43.81l5.61 14.1 -36.04 0 5.98 -15.01c2.59,-6.51 5.21,-13.07 8.6,-21.71l3.44 -8.8 3.45 8.8c3.38,8.64 5.99,15.2 8.59,21.71l0.37 0.91z"></path> </g> <rect class="fil2" width="1227.08" height="446.98"></rect> </g> </svg> 